<?xml version="1.0" encoding="UTF-8" standalone="no"?>
<!-- Created with Inkscape (http://www.inkscape.org/) -->

<svg
   width="300"
   height="300"
   viewBox="0 0 79.38 79.38"
   version="1.1"
   id="svg5"
   inkscape:version="1.1.2 (08b2f3d93c, 2022-04-05)"
   sodipodi:docname="preloader.svg"
   xmlns:inkscape="http://www.inkscape.org/namespaces/inkscape"
   xmlns:sodipodi="http://sodipodi.sourceforge.net/DTD/sodipodi-0.dtd"
   xmlns="http://www.w3.org/2000/svg"
   xmlns:svg="http://www.w3.org/2000/svg">
  <sodipodi:namedview
     id="namedview7"
     pagecolor="#ffffff"
     bordercolor="#111111"
     borderopacity="1"
     inkscape:pageshadow="0"
     inkscape:pageopacity="0"
     inkscape:pagecheckerboard="1"
     inkscape:document-units="px"
     showgrid="false"
     fit-margin-top="0"
     fit-margin-left="0"
     fit-margin-right="0"
     fit-margin-bottom="0"
     units="px"
     showguides="true"
     inkscape:guide-bbox="true"
     inkscape:zoom="1.758"
     inkscape:cx="120.6"
     inkscape:cy="175.5"
     inkscape:window-width="1920"
     inkscape:window-height="1052"
     inkscape:window-x="0"
     inkscape:window-y="0"
     inkscape:window-maximized="1"
     inkscape:current-layer="layer1" />
  <defs
     id="defs2" />
  <g
     inkscape:label="Layer 1"
     inkscape:groupmode="layer"
     id="layer1"
     transform="translate(-65.37,-103.6)"
     style="display:inline">
    <path
       id="shine-streak"
       d="m 53.61,184 104.49,-36.5 0.7,1.9 -104.53,36.5 z"
       style="mix-blend-mode:lighten;fill:#000000;fill-opacity:1" />
  </g>
  <g
     inkscape:groupmode="layer"
     id="intro"
     inkscape:label="intro"
     style="display:none"
     sodipodi:insensitive="true">
    <path
       d="m 12.46,34.62 v 1.86 q 0,1.42 -1.04,1.42 -0.23,0 -0.42,-0.1 -0.17,-0.1 -0.28,-0.17 -0.1,-0.1 -0.17,-0.23 -0.1,-0.17 -0.1,-0.26 0,-0.1 -0.1,-0.23 0,-0.17 0,-0.19 -0.15,-0.64 -0.835,-1.02 -0.68,-0.4 -1.68,-0.4 -0.99,0 -1.69,0.47 -0.7,0.46 -0.7,1.14 0,0.42 0.21,0.74 0.24,0.3 0.72,0.49 0.49,0.17 0.79,0.25 0.31,0.1 0.93,0.19 0.8,0.15 1.4,0.32 0.605,0.15 1.285,0.44 0.67,0.3 1.1,0.7 0.44,0.38 0.72,1 0.29,0.61 0.29,1.39 0,1.65 -1.33,2.67 -1.33,1.02 -3.505,1.02 -1.76,0 -3.31,-0.83 -0.42,0.51 -0.84,0.51 -1.08,0 -1.08,-1.4 V 43 q 0,-1.39 1.06,-1.39 0.14,0 0.27,0 0.13,0 0.23,0.1 0.11,0.1 0.17,0.11 0.1,0 0.13,0.15 0.1,0.1 0.11,0.15 0,0.1 0.1,0.15 0,0.1 0,0.14 0,0.1 0,0.13 v 0.1 q 0.14,0.58 1.01,0.98 0.87,0.4 1.929,0.4 1.181,0 1.987,-0.47 0.799,-0.46 0.799,-1.14 0,-0.53 -0.46,-0.87 -0.429,-0.34 -0.865,-0.44 -0.45,-0.13 -1.46,-0.32 -0.15,0 -0.21,0 -0.98,-0.19 -1.68,-0.4 -0.67,-0.24 -1.37,-0.64 -0.68,-0.42 -1.04,-1.1 -0.34,-0.7 -0.34,-1.63 0,-1.61 1.31,-2.67 1.32,-1.08 3.28,-1.08 1.63,0 2.755,0.7 0.16,-0.4 0.33,-0.55 0.17,-0.15 0.49,-0.15 1.04,0 1.04,1.4 z"
       id="s-simple-abbrev"
       style="font-weight:bold;font-size:21.1667px;line-height:1.25;font-family:'Tlwg Typo';-inkscape-font-specification:'Tlwg Typo, Bold';letter-spacing:0px;word-spacing:0px;stroke-width:0.2646"
       class="letter simple" />
    <path
       d="m 42.4,33.94 0.21,0.1 q 0.36,-0.51 0.89,-0.51 1.06,0 1.06,1.4 v 1.77 q 0,1.4 -1.06,1.4 -0.49,0 -0.7,-0.25 -0.21,-0.27 -0.34,-0.88 -0.15,-0.74 -1.06,-1.19 -0.89,-0.44 -1.92,-0.44 -1.61,0 -2.67,1.1 -1.06,1.08 -1.06,2.75 v 1.36 q 0,1.58 1.12,2.54 1.15,0.95 3.05,0.95 0.55,0 1,-0.1 0.46,-0.1 0.74,-0.15 0.27,-0.1 0.55,-0.26 0.29,-0.19 0.38,-0.25 0.1,-0.1 0.27,-0.3 l 0.19,-0.15 q 0.34,-0.34 0.76,-0.34 0.43,0 0.75,0.32 0.31,0.32 0.31,0.74 0,0.89 -1.42,1.76 -1.41,0.85 -3.59,0.85 -2.69,0 -4.47,-1.57 -1.76,-1.59 -1.76,-4 v -1.4 q 0,-2.54 1.66,-4.25 1.65,-1.72 4.1,-1.72 1.48,0 3.01,0.72 z"
       id="c-cosmic-abbrev"
       style="font-weight:bold;font-size:21.1667px;line-height:1.25;font-family:'Tlwg Typo';-inkscape-font-specification:'Tlwg Typo, Bold';letter-spacing:0px;word-spacing:0px;stroke-width:0.2646"
       class="letter cosmic"
       inkscape:transform-center-x="4.895"
       inkscape:transform-center-y="11.65" />
    <path
       d="m 66.15,45.86 q -1.4,0 -1.4,-1.06 0,-1.06 1.4,-1.06 h 0.31 v -8.1 h -0.31 q -1.4,0 -1.4,-1.06 0,-1.06 1.4,-1.06 h 5.35 q 1.79,0 2.96,0.99 1.18,1 1.18,2.5 0,1.36 -1.33,2.39 2.24,1.13 2.24,3.07 0,1.53 -1.14,2.46 -1.14,0.93 -3.02,0.93 z m 2.43,-7.24 h 2.39 q 1.15,0 1.83,-0.44 0.72,-0.47 0.72,-1.19 0,-0.63 -0.57,-0.99 -0.56,-0.36 -1.55,-0.36 h -2.82 z m 5.85,3.98 q 0,-0.68 -0.72,-1.27 Q 73,40.74 71.44,40.74 h -2.86 v 3 h 3.71 q 2.14,0 2.14,-1.14 z"
       id="b-blog-abbrev"
       style="font-weight:bold;font-size:21.1667px;line-height:1.25;font-family:'Tlwg Typo';-inkscape-font-specification:'Tlwg Typo, Bold';letter-spacing:0px;word-spacing:0px;stroke-width:0.2646"
       class="letter blog" />
  </g>
  <g
     inkscape:groupmode="layer"
     id="final-display"
     inkscape:label="final-display"
     style="display:inline">
    <g
       id="g1683">
      <path
         d="m 12.91,16.26 v 1.86 q 0,1.42 -1.04,1.42 -0.23,0 -0.42,-0.1 -0.17,-0.1 -0.28,-0.17 -0.1,-0.1 -0.17,-0.23 -0.1,-0.17 -0.1,-0.26 0,-0.1 -0.1,-0.23 0,-0.17 0,-0.19 -0.15,-0.64 -0.844,-1.02 -0.677,-0.4 -1.672,-0.4 -0.995,0 -1.693,0.47 -0.699,0.46 -0.699,1.14 0,0.42 0.212,0.74 0.233,0.3 0.719,0.49 0.487,0.17 0.784,0.25 0.317,0.1 0.931,0.19 0.804,0.15 1.397,0.32 0.615,0.15 1.295,0.44 0.67,0.3 1.1,0.7 0.44,0.38 0.72,1 0.29,0.61 0.29,1.39 0,1.65 -1.33,2.67 -1.33,1.02 -3.514,1.02 -1.757,0 -3.302,-0.83 -0.424,0.51 -0.847,0.51 -1.08,0 -1.08,-1.4 v -1.4 q 0,-1.39 1.059,-1.39 0.148,0 0.275,0 0.127,0 0.233,0.1 0.106,0.1 0.169,0.11 0.08,0 0.127,0.15 0.06,0.1 0.106,0.15 0.04,0.1 0.06,0.15 0.04,0.1 0.04,0.14 0.02,0.1 0.04,0.13 l 0.02,0.1 q 0.148,0.58 1.016,0.98 0.868,0.4 1.926,0.4 1.186,0 1.992,-0.47 0.8,-0.46 0.8,-1.14 0,-0.53 -0.46,-0.87 Q 10.24,22.84 9.797,22.74 9.352,22.61 8.336,22.42 8.188,22.4 8.125,22.38 7.151,22.19 6.452,21.98 5.775,21.74 5.077,21.34 4.399,20.92 4.039,20.24 3.701,19.54 3.701,18.61 q 0,-1.61 1.312,-2.67 1.312,-1.08 3.281,-1.08 1.63,0 2.756,0.7 0.16,-0.4 0.33,-0.55 0.17,-0.15 0.49,-0.15 1.04,0 1.04,1.4 z"
         id="s-simple"
         style="font-weight:bold;font-size:21.1667px;line-height:1.25;font-family:'Tlwg Typo';-inkscape-font-specification:'Tlwg Typo, Bold';letter-spacing:0px;word-spacing:0px;opacity:1;stroke-width:0.2646"
         class="letter simple" />
      <path
         d="m 16.84,27.5 q -1.39,0 -1.39,-1.06 0,-1.06 1.39,-1.06 h 2.59 v -5.01 h -1.65 q -1.42,0 -1.42,-1.06 0,-1.06 1.42,-1.06 h 3.76 v 7.13 h 2.59 q 1.39,0 1.39,1.06 0,1.06 -1.39,1.06 z m 4.41,-13.19 v 2.23 h -2.5 v -2.23 z"
         id="i-simple"
         style="font-weight:bold;font-size:21.1667px;line-height:1.25;font-family:'Tlwg Typo';-inkscape-font-specification:'Tlwg Typo, Bold';letter-spacing:0px;word-spacing:0px;opacity:1;stroke-width:0.2646"
         class="letter simple" />
      <path
         d="m 26.96,19.31 q 0,-1.06 1.42,-1.06 h 1.97 v 0.51 q 0.97,-0.79 1.8,-0.79 1.21,0 2.16,1.04 0.95,-1.04 2.2,-1.04 1.18,0 1.97,0.81 0.8,0.78 0.8,1.97 v 4.63 q 1.27,0 1.27,1.06 0,1.06 -1.4,1.06 h -1.98 v -6.58 q 0,-0.47 -0.17,-0.64 -0.15,-0.19 -0.58,-0.19 -0.42,0 -0.76,0.19 -0.32,0.19 -0.84,0.76 v 4.34 q 0.59,0 0.93,0.3 0.34,0.27 0.34,0.76 0,1.06 -1.4,1.06 H 32.7 v -6.58 q 0,-0.45 -0.17,-0.64 -0.17,-0.19 -0.57,-0.19 -0.76,0 -1.61,0.95 v 4.34 q 1.29,0 1.29,1.06 0,1.06 -1.4,1.06 h -1.86 q -1.42,0 -1.42,-1.06 0,-1.06 1.27,-1.06 v -5.01 q -1.27,-0.1 -1.27,-1.06 z"
         id="m-simple"
         style="font-weight:bold;font-size:21.1667px;line-height:1.25;font-family:'Tlwg Typo';-inkscape-font-specification:'Tlwg Typo, Bold';letter-spacing:0px;word-spacing:0px;opacity:1;stroke-width:0.2646"
         class="letter simple" />
      <path
         d="m 44.81,26.1 v 3.62 h 1.23 q 1.39,0 1.39,1.06 0,1.06 -1.39,1.06 h -3.69 q -1.39,0 -1.39,-1.06 0,-1.06 1.39,-1.06 h 0.34 v -9.35 h -0.34 q -1.39,0 -1.39,-1.06 0,-1.06 1.39,-1.06 h 2.46 v 0.95 q 1.44,-1.23 3.24,-1.23 2.22,0 3.68,1.38 1.48,1.36 1.48,3.41 0,1.95 -1.46,3.24 -1.46,1.29 -3.66,1.29 -1.74,0 -3.28,-1.19 z m 6.28,-3.47 q 0,-0.91 -0.78,-1.71 -0.76,-0.83 -2.35,-0.83 -1.63,0 -2.39,0.83 -0.76,0.82 -0.76,1.69 0,1.12 0.87,1.84 0.88,0.72 2.28,0.72 1.38,0 2.25,-0.72 0.88,-0.72 0.88,-1.82 z"
         id="p-simple"
         style="font-weight:bold;font-size:21.1667px;line-height:1.25;font-family:'Tlwg Typo';-inkscape-font-specification:'Tlwg Typo, Bold';letter-spacing:0px;word-spacing:0px;opacity:1;stroke-width:0.2646"
         class="letter simple" />
      <path
         d="m 55.47,27.5 q -1.39,0 -1.39,-1.06 0,-1.06 1.39,-1.06 h 2.59 v -8.97 h -1.65 q -1.42,0 -1.42,-1.06 0,-1.06 1.42,-1.06 h 3.76 v 11.09 h 2.59 q 1.39,0 1.39,1.06 0,1.06 -1.39,1.06 z"
         id="l-simple"
         style="font-weight:bold;font-size:21.1667px;line-height:1.25;font-family:'Tlwg Typo';-inkscape-font-specification:'Tlwg Typo, Bold';letter-spacing:0px;word-spacing:0px;opacity:1;stroke-width:0.2646"
         class="letter simple" />
      <path
         d="m 71.94,25.72 q 1.12,0 2.5,-0.34 1.38,-0.36 1.65,-0.36 0.42,0 0.72,0.32 0.3,0.3 0.3,0.74 0,0.62 -0.74,0.95 -0.72,0.32 -2.12,0.55 -1.38,0.26 -2.5,0.26 -2.45,0 -4.02,-1.38 -1.57,-1.37 -1.57,-3.53 0,-2.1 1.57,-3.52 1.59,-1.44 3.89,-1.44 2.38,0 3.92,1.44 1.57,1.44 1.57,3.62 v 0.83 h -8.64 q 0.72,1.86 3.47,1.86 z M 68.53,22 h 6.23 q -0.26,-0.87 -1.1,-1.38 -0.85,-0.53 -2.01,-0.53 -1.17,0 -2.04,0.53 -0.84,0.53 -1.08,1.38 z"
         id="e-simple"
         style="font-weight:bold;font-size:21.1667px;line-height:1.25;font-family:'Tlwg Typo';-inkscape-font-specification:'Tlwg Typo, Bold';letter-spacing:0px;word-spacing:0px;opacity:1;stroke-width:0.2646"
         class="letter simple" />
      <path
         d="m 11.35,32.66 0.21,0.1 q 0.36,-0.51 0.89,-0.51 1.06,0 1.06,1.4 v 1.77 q 0,1.4 -1.06,1.4 -0.49,0 -0.7,-0.25 Q 11.54,36.3 11.41,35.69 11.26,34.95 10.35,34.5 9.463,34.06 8.426,34.06 6.817,34.06 5.759,35.16 4.7,36.24 4.7,37.91 v 1.36 q 0,1.58 1.122,2.54 1.143,0.95 3.048,0.95 0.55,0 0.995,-0.1 0.465,-0.1 0.745,-0.15 0.27,-0.1 0.55,-0.26 0.29,-0.19 0.38,-0.25 0.1,-0.1 0.27,-0.3 L 12,41.55 q 0.34,-0.34 0.76,-0.34 0.43,0 0.75,0.32 0.31,0.32 0.31,0.74 0,0.89 -1.42,1.76 -1.41,0.85 -3.593,0.85 -2.689,0 -4.467,-1.57 -1.756,-1.59 -1.756,-4 v -1.4 q 0,-2.54 1.651,-4.25 1.651,-1.72 4.106,-1.72 1.482,0 3.009,0.72 z"
         id="c-cosmic"
         style="font-weight:bold;font-size:21.1667px;line-height:1.25;font-family:'Tlwg Typo';-inkscape-font-specification:'Tlwg Typo, Bold';letter-spacing:0px;word-spacing:0px;opacity:1;stroke-width:0.2646"
         class="letter cosmic" />
      <path
         d="m 21,35.05 q 2.24,0 3.81,1.44 1.59,1.44 1.59,3.5 0,2.07 -1.59,3.51 -1.59,1.42 -3.88,1.42 -2.28,0 -3.87,-1.42 -1.59,-1.44 -1.59,-3.51 0,-2.1 1.59,-3.52 1.59,-1.42 3.94,-1.42 z m 0,2.12 q -1.44,0 -2.42,0.81 -0.97,0.8 -0.97,2.01 0,1.18 0.95,2.01 0.98,0.8 2.39,0.8 1.42,0 2.38,-0.8 Q 24.3,41.17 24.3,39.99 24.3,38.8 23.33,38 22.37,37.17 21,37.17 Z"
         id="o-cosmic"
         style="font-weight:bold;font-size:21.1667px;line-height:1.25;font-family:'Tlwg Typo';-inkscape-font-specification:'Tlwg Typo, Bold';letter-spacing:0px;word-spacing:0px;opacity:1;stroke-width:0.2646"
         class="letter cosmic" />
      <path
         d="m 29.38,44.56 q -1.08,0 -1.08,-1.4 v -0.7 q 0,-1.41 1.08,-1.41 0.8,0 1.08,0.93 0.91,0.82 2.64,0.82 1.02,0 1.74,-0.27 0.74,-0.28 0.74,-0.64 0,-0.82 -2.67,-1.1 -2.22,-0.23 -3.21,-0.91 -1,-0.68 -1,-1.93 0,-1.27 1.23,-2.07 1.23,-0.83 3.13,-0.83 1.55,0 2.73,0.56 0.24,-0.56 0.68,-0.56 1,0 1,1.4 v 0.79 q 0,1.39 -1.06,1.39 -0.62,0 -1.1,-0.84 -0.87,-0.62 -2.18,-0.62 -0.81,0 -1.46,0.23 -0.64,0.22 -0.64,0.51 0,0.34 0.49,0.49 0.48,0.15 1.54,0.3 0.13,0 0.19,0 0.79,0.1 1.34,0.23 0.57,0.11 1.25,0.36 0.67,0.23 1.07,0.57 0.43,0.32 0.7,0.85 0.3,0.53 0.3,1.2 0,1.3 -1.33,2.14 -1.34,0.85 -3.39,0.85 -1.84,0 -3.13,-0.62 -0.32,0.26 -0.68,0.26 z"
         id="s-cosmic"
         style="font-weight:bold;font-size:21.1667px;line-height:1.25;font-family:'Tlwg Typo';-inkscape-font-specification:'Tlwg Typo, Bold';letter-spacing:0px;word-spacing:0px;opacity:1;stroke-width:0.2646"
         class="letter cosmic" />
      <path
         d="m 39.58,36.39 q 0,-1.06 1.42,-1.06 h 1.97 v 0.51 q 0.97,-0.79 1.8,-0.79 1.21,0 2.16,1.04 0.95,-1.04 2.2,-1.04 1.18,0 1.97,0.81 0.8,0.78 0.8,1.97 v 4.63 q 1.27,0 1.27,1.06 0,1.06 -1.4,1.06 H 49.79 V 38 q 0,-0.47 -0.17,-0.64 -0.15,-0.19 -0.58,-0.19 -0.42,0 -0.76,0.19 -0.32,0.19 -0.84,0.76 v 4.34 q 0.59,0 0.93,0.3 0.34,0.27 0.34,0.76 0,1.06 -1.4,1.06 H 45.32 V 38 q 0,-0.45 -0.17,-0.64 -0.17,-0.19 -0.57,-0.19 -0.76,0 -1.61,0.95 v 4.34 q 1.29,0 1.29,1.06 0,1.06 -1.4,1.06 H 41 q -1.42,0 -1.42,-1.06 0,-1.06 1.27,-1.06 v -5.01 q -1.27,-0.1 -1.27,-1.06 z"
         id="m-cosmic"
         style="font-weight:bold;font-size:21.1667px;line-height:1.25;font-family:'Tlwg Typo';-inkscape-font-specification:'Tlwg Typo, Bold';letter-spacing:0px;word-spacing:0px;opacity:1;stroke-width:0.2646"
         class="letter cosmic" />
      <path
         d="m 55.92,44.58 q -1.39,0 -1.39,-1.06 0,-1.06 1.39,-1.06 h 2.59 v -5.01 h -1.65 q -1.42,0 -1.42,-1.06 0,-1.06 1.42,-1.06 h 3.76 v 7.13 h 2.59 q 1.39,0 1.39,1.06 0,1.06 -1.39,1.06 z m 4.41,-13.19 v 2.23 h -2.5 v -2.23 z"
         id="i-cosmic"
         style="font-weight:bold;font-size:21.1667px;line-height:1.25;font-family:'Tlwg Typo';-inkscape-font-specification:'Tlwg Typo, Bold';letter-spacing:0px;word-spacing:0px;opacity:1;stroke-width:0.2646"
         class="letter cosmic" />
      <path
         d="m 71.95,37.17 q -1.51,0 -2.42,0.85 -0.89,0.82 -0.89,2.18 0,2.6 3.73,2.6 0.44,0 0.83,0 0.38,0 0.65,-0.1 0.28,0 0.53,-0.13 0.25,-0.1 0.38,-0.13 0.15,0 0.32,-0.14 0.19,-0.13 0.23,-0.15 0.1,-0.1 0.19,-0.17 l 0.15,-0.13 q 0.28,-0.25 0.64,-0.25 0.42,0 0.74,0.31 0.31,0.32 0.31,0.77 0,0.84 -1.35,1.54 -1.4,0.68 -3.77,0.68 -1.42,0 -2.5,-0.34 -1.05,-0.36 -1.65,-0.87 -0.59,-0.51 -0.97,-1.18 -0.36,-0.68 -0.47,-1.23 -0.1,-0.55 -0.1,-1.1 0,-2.27 1.5,-3.71 1.52,-1.44 3.92,-1.44 1.82,0 3.04,0.64 0.2,-0.64 0.81,-0.64 1.01,0 1.01,1.4 v 1.63 q 0,1.4 -1.05,1.4 -0.49,0 -0.74,-0.23 -0.24,-0.24 -0.34,-0.79 -0.11,-0.51 -0.49,-0.76 -0.87,-0.53 -2.24,-0.53 z"
         id="c2-cosmic"
         style="font-weight:bold;font-size:21.1667px;line-height:1.25;font-family:'Tlwg Typo';-inkscape-font-specification:'Tlwg Typo, Bold';letter-spacing:0px;word-spacing:0px;opacity:1;stroke-width:0.2646"
         class="letter cosmic" />
      <path
         d="m 3.427,61.28 q -1.397,0 -1.397,-1.06 0,-1.06 1.397,-1.06 h 0.318 v -8.1 H 3.427 Q 2.03,51.06 2.03,50 q 0,-1.06 1.397,-1.06 h 5.355 q 1.798,0 2.968,0.99 1.18,1 1.18,2.5 0,1.36 -1.33,2.39 2.24,1.13 2.24,3.07 0,1.53 -1.14,2.46 -1.14,0.93 -3.029,0.93 z m 2.434,-7.24 h 2.392 q 1.143,0 1.837,-0.44 0.72,-0.47 0.72,-1.19 0,-0.63 -0.57,-0.99 Q 9.671,51.06 8.677,51.06 H 5.861 Z m 5.859,3.98 Q 11.72,57.34 11,56.75 10.29,56.16 8.719,56.16 H 5.861 v 3 h 3.705 q 2.154,0 2.154,-1.14 z"
         id="b-blog"
         style="font-weight:bold;font-size:21.1667px;line-height:1.25;font-family:'Tlwg Typo';-inkscape-font-specification:'Tlwg Typo, Bold';letter-spacing:0px;word-spacing:0px;opacity:1;stroke-width:0.2646"
         class="letter blog" />
      <path
         d="m 17.16,61.28 q -1.39,0 -1.39,-1.06 0,-1.06 1.39,-1.06 h 2.59 V 50.19 H 18.1 q -1.42,0 -1.42,-1.06 0,-1.06 1.42,-1.06 h 3.76 v 11.09 h 2.59 q 1.39,0 1.39,1.06 0,1.06 -1.39,1.06 z"
         id="l-blog"
         style="font-weight:bold;font-size:21.1667px;line-height:1.25;font-family:'Tlwg Typo';-inkscape-font-specification:'Tlwg Typo, Bold';letter-spacing:0px;word-spacing:0px;opacity:1;stroke-width:0.2646"
         class="letter blog" />
      <path
         d="m 33.57,51.75 q 2.24,0 3.81,1.44 1.59,1.44 1.59,3.5 0,2.07 -1.59,3.51 -1.59,1.42 -3.88,1.42 -2.28,0 -3.87,-1.42 -1.59,-1.44 -1.59,-3.51 0,-2.1 1.59,-3.52 1.59,-1.42 3.94,-1.42 z m 0,2.12 q -1.44,0 -2.42,0.81 -0.97,0.8 -0.97,2.01 0,1.18 0.95,2.01 0.98,0.8 2.39,0.8 1.42,0 2.38,-0.8 0.97,-0.83 0.97,-2.01 0,-1.19 -0.97,-1.99 -0.96,-0.83 -2.33,-0.83 z"
         id="o-blog"
         style="font-weight:bold;font-size:21.1667px;line-height:1.25;font-family:'Tlwg Typo';-inkscape-font-specification:'Tlwg Typo, Bold';letter-spacing:0px;word-spacing:0px;opacity:1;stroke-width:0.2646"
         class="letter blog" />
      <path
         d="m 48.53,52.79 v -0.76 h 2.46 q 1.4,0 1.4,1.06 0,1.06 -1.4,1.06 h -0.34 v 7.55 q 0,1.68 -1.16,2.8 -1.15,1.12 -2.88,1.12 h -2.37 q -1.4,0 -1.4,-1.06 0,-1.06 1.4,-1.06 h 2.3 q 0.91,0 1.44,-0.48 0.55,-0.49 0.55,-1.32 v -1.16 q -1.39,1.04 -2.98,1.04 -2.14,0 -3.58,-1.4 -1.42,-1.42 -1.42,-3.51 0,-2.12 1.42,-3.52 1.44,-1.42 3.58,-1.42 1.73,0 2.98,1.06 z m -2.94,1.06 q -1.21,0 -2.07,0.83 -0.85,0.8 -0.85,1.96 0,1.17 0.85,1.99 0.86,0.83 2.07,0.83 1.21,0 2.08,-0.8 0.86,-0.83 0.86,-1.97 0,-1.19 -0.86,-2.01 -0.85,-0.83 -2.08,-0.83 z"
         id="g-blog"
         style="font-weight:bold;font-size:21.1667px;line-height:1.25;font-family:'Tlwg Typo';-inkscape-font-specification:'Tlwg Typo, Bold';letter-spacing:0px;word-spacing:0px;opacity:1;stroke-width:0.2646"
         class="letter blog" />
    </g>
  </g>
</svg>
